<svg width="800" height="420" viewBox="0 0 800 420" fill="none" xmlns="http://www.w3.org/2000/svg">
<path d="M229.941 224.344C258.237 224.344 284.794 216.145 310.253 202.978V112.172L286.159 80.123H246.003L275.451 120.184V184.283C261.741 189.391 247.251 192.101 232.618 192.295C209.113 192.295 191.15 186.687 179.505 173.733C167.86 160.78 157.66 140.669 157.66 112.172C157.66 83.6751 167.86 62.3357 179.505 49.3824C191.15 36.4292 208.953 29.9659 233.207 29.9659C240.729 29.9659 259.388 32.0492 259.388 32.0492L235.295 0C235.295 0 230.583 0.186892 228.656 0.186892C195.353 0.186892 169.885 9.40998 152.253 27.8561C134.638 46.3111 122.805 74.8349 122.805 112.172C122.805 149.51 134.584 177.179 152.253 195.74C169.921 214.302 196.424 224.344 229.941 224.344Z" fill="white"/>
<path d="M433.398 0H481.585L403.95 112.172H353.086L433.398 0Z" fill="#085879"/>
<path d="M275.453 0H323.64L403.952 112.172H353.088L275.453 0Z" fill="#09CE90"/>
<path d="M513.71 0V56.0861L559.22 120.184V224.344H594.022V120.184L679.688 0H639.532L576.621 87.8682L513.71 0Z" fill="white"/>
<path d="M481.584 0L443.597 54.8041L444.105 224.344H481.584V0Z" fill="white"/>
<g clip-path="url(#clip0_1325_535)">
<path d="M1.6061e-05 302.778C1.6061e-05 272.075 14.4168 256.732 43.2504 256.75C52.9184 256.921 62.4425 259.122 71.2049 263.212V281.808C63.8948 276.531 55.1637 273.58 46.1513 273.341C38.0463 273.341 31.9982 275.61 28.0073 280.146C23.9987 284.683 22.0208 292.227 22.0208 302.778C22.0208 313.329 24.0514 320.794 28.1391 325.199C32.2268 329.604 38.5297 331.794 47.0743 331.794C50.9784 331.717 54.8475 331.041 58.5462 329.789C63.0186 328.297 67.2749 326.222 71.2049 323.617V342.081C67.0187 344.138 62.5877 345.654 58.0188 346.591C53.1715 347.69 48.2203 348.265 43.2504 348.306C14.3992 348.376 -0.0175654 333.2 1.6061e-05 302.778Z" fill="white"/>
<path d="M95.0718 337.069C87.4942 329.402 83.7142 317.972 83.7318 302.778C83.7493 287.585 87.459 276.26 94.8608 268.804C102.298 261.014 112.847 257.127 126.507 257.145C139.957 257.145 150.506 260.943 158.154 268.54C165.802 276.137 169.608 287.567 169.573 302.831C169.573 317.796 165.855 329.226 158.418 337.122C150.981 345.017 140.37 348.921 126.587 348.833C113.137 348.622 102.632 344.701 95.0718 337.069ZM142.278 324.381C145.794 320.003 147.552 312.749 147.552 302.62C147.552 292.491 145.794 285.263 142.278 280.938C140.338 278.682 137.895 276.915 135.147 275.779C132.398 274.642 129.42 274.169 126.455 274.396C123.513 274.19 120.565 274.679 117.848 275.825C115.131 276.971 112.722 278.74 110.816 280.99C107.335 285.395 105.542 292.702 105.542 302.91C105.542 313.118 107.256 320.108 110.816 324.46C112.862 326.537 115.301 328.186 117.99 329.312C120.68 330.438 123.566 331.017 126.481 331.017C129.396 331.017 132.282 330.438 134.972 329.312C137.661 328.186 140.1 326.537 142.146 324.46L142.278 324.381Z" fill="white"/>
<path d="M261.348 258.728V346.697H245.261L204.252 293.124V346.697H184.605V258.728H202.802L241.754 311.008V258.728H261.348Z" fill="white"/>
<path d="M292.204 347.145C287.427 346.273 282.806 344.7 278.49 342.476V322.139C282.519 325.367 287.092 327.85 291.993 329.472C296.763 331.161 301.78 332.053 306.84 332.11C315.086 332.11 319.217 328.997 319.235 322.772C319.244 321.44 318.877 320.133 318.178 318.999C317.478 317.865 316.474 316.952 315.279 316.363C311.194 314.199 306.911 312.433 302.489 311.087C299.852 310.19 298.085 309.61 297.478 309.372C291.895 307.685 286.771 304.744 282.499 300.773C278.859 297.186 277.04 291.805 277.04 284.71C276.995 279.819 278.27 275.008 280.732 270.782C283.395 266.313 287.348 262.754 292.072 260.574C297.973 257.846 304.43 256.536 310.928 256.749C315.423 256.673 319.912 257.133 324.298 258.121C328.418 259.186 332.42 260.661 336.245 262.526V282.995C332.579 280.197 328.596 277.842 324.378 275.979C320.34 274.232 315.986 273.334 311.587 273.341C308.327 273.18 305.09 273.978 302.278 275.636C301.163 276.338 300.253 277.322 299.641 278.49C299.03 279.657 298.739 280.966 298.797 282.283C298.751 283.313 298.915 284.342 299.278 285.308C299.64 286.273 300.194 287.155 300.906 287.901C302.386 289.406 304.19 290.552 306.181 291.251C308.238 292.069 311.455 293.15 316.149 294.548C320.806 295.827 325.315 297.595 329.599 299.824C333.032 301.711 335.934 304.433 338.038 307.737C340.291 311.516 341.391 315.871 341.203 320.266C341.262 325.342 339.989 330.344 337.511 334.774C334.947 339.161 331.163 342.708 326.619 344.982C321.364 347.588 315.552 348.873 309.688 348.728C303.824 348.739 297.971 348.209 292.204 347.145Z" fill="white"/>
<path d="M366.178 340.762C359.479 334.932 356.156 325.991 356.156 313.83V258.728H378.441V312.907C378.441 319.686 379.786 324.698 382.528 327.969C385.271 331.24 389.596 332.849 395.583 332.849C397.95 332.991 400.321 332.617 402.53 331.751C404.738 330.886 406.732 329.55 408.373 327.837C411.651 323.58 413.246 318.266 412.856 312.907V258.728H433.163V313.83C433.163 325.7 429.884 334.607 423.326 340.551C416.768 346.495 407.872 349.458 396.638 349.44C383.047 349.44 372.894 346.547 366.178 340.762Z" fill="white"/>
<path d="M451.887 258.728H473.249V329.947H511.488V346.697H451.887V258.728Z" fill="white"/>
<path d="M531.136 275.214H506.478V258.728H577.551V275.214H552.497V346.697H531.136V275.214Z" fill="white"/>
<path d="M590.077 258.728H611.413V346.697H590.077V258.728Z" fill="white"/>
<path d="M706.88 258.728V346.697H690.793L649.784 293.124V346.697H630.137V258.728H648.334L687.233 311.008V258.728H706.88Z" fill="white"/>
<path d="M733.12 337.385C725.666 329.982 721.93 318.42 721.912 302.699C721.894 286.978 725.674 275.407 733.252 267.986C740.83 260.442 751.334 256.67 764.767 256.67C775.556 256.691 786.23 258.889 796.15 263.133V282.494C791.168 279.786 785.994 277.45 780.669 275.504C776.426 274.041 771.971 273.284 767.483 273.262C759.571 273.262 753.532 275.504 749.629 279.935C745.726 284.367 743.748 291.911 743.748 302.541C743.748 313.171 745.726 320.504 749.682 325.041C751.809 327.363 754.429 329.18 757.35 330.357C760.27 331.535 763.417 332.044 766.56 331.846C770.712 332.043 774.856 331.313 778.691 329.71V314.147H764.187V297.555H800.053V338.942C789.335 345.097 777.205 348.369 764.846 348.438C751.185 348.49 740.61 344.806 733.12 337.385Z" fill="white"/>
<path d="M136.265 414.355C132.854 410.715 131.149 405.228 131.149 397.896C131.149 390.563 132.854 385.111 136.265 381.541C138.219 379.651 140.547 378.19 143.1 377.254C145.653 376.318 148.373 375.928 151.086 376.108C155.943 376.073 160.753 377.071 165.195 379.036V385.735C162.94 384.64 160.614 383.697 158.233 382.913C156.211 382.275 154.103 381.946 151.983 381.937C150.053 381.756 148.108 382.003 146.285 382.659C144.461 383.316 142.805 384.366 141.434 385.735C139.208 389.401 138.031 393.607 138.031 397.896C138.031 402.184 139.208 406.39 141.434 410.055C142.758 411.39 144.357 412.422 146.119 413.077C147.882 413.733 149.765 413.998 151.64 413.854C154.375 413.911 157.098 413.483 159.684 412.588V402.512H150.822V396.577H166.646V415.938C161.827 418.485 156.457 419.807 151.007 419.789C148.307 419.959 145.601 419.564 143.063 418.628C140.524 417.693 138.209 416.237 136.265 414.355Z" fill="white"/>
<path d="M284.819 419.156L274.956 403.329H266.016V419.156H259.054V376.952H277.804C281.47 376.696 285.097 377.836 287.958 380.143C289.191 381.386 290.142 382.88 290.747 384.523C291.352 386.166 291.597 387.92 291.465 389.666C291.465 392.519 290.54 395.296 288.828 397.579C287.21 399.82 284.81 401.373 282.103 401.931L293.364 419.103L284.819 419.156ZM266.016 397.5H275.827C278.067 397.68 280.294 397.022 282.077 395.653C282.802 394.93 283.362 394.058 283.717 393.097C284.073 392.136 284.215 391.109 284.134 390.088C284.285 388.127 283.681 386.183 282.446 384.654C281.72 383.976 280.857 383.46 279.916 383.142C278.974 382.823 277.976 382.709 276.987 382.808H266.016V397.5Z" fill="white"/>
<path d="M385.139 414.302C381.764 410.61 380.076 405.176 380.076 397.948C380.076 390.721 381.737 385.34 385.087 381.647C386.977 379.723 389.262 378.232 391.784 377.275C394.307 376.319 397.006 375.921 399.697 376.108C402.386 375.931 405.082 376.329 407.606 377.275C410.129 378.221 412.423 379.693 414.333 381.594C417.709 385.234 419.397 390.686 419.397 397.948C419.397 405.211 417.718 410.645 414.36 414.25C410.321 417.801 405.127 419.76 399.749 419.76C394.372 419.76 389.178 417.801 385.139 414.25V414.302ZM409.164 409.95C411.467 406.373 412.524 402.135 412.171 397.896C412.524 393.677 411.457 389.462 409.138 385.92C406.579 383.532 403.21 382.204 399.71 382.204C396.21 382.204 392.841 383.532 390.282 385.92C388.274 389.611 387.222 393.746 387.222 397.948C387.222 402.15 388.274 406.286 390.282 409.976C392.833 412.39 396.211 413.735 399.723 413.735C403.235 413.735 406.613 412.39 409.164 409.976V409.95Z" fill="white"/>
<path d="M514.574 415.569C512.95 413.8 511.707 411.717 510.923 409.448C510.138 407.18 509.828 404.774 510.011 402.38V376.952H517.185V402.512C516.937 405.682 517.877 408.832 519.822 411.348C520.835 412.359 522.055 413.14 523.398 413.636C524.74 414.132 526.174 414.332 527.602 414.223C534.634 414.223 538.151 410.319 538.151 402.512V376.952H544.875V402.591C545.041 404.955 544.727 407.328 543.952 409.567C543.177 411.806 541.957 413.866 540.366 415.621C538.714 417.176 536.764 418.377 534.633 419.153C532.502 419.928 530.235 420.261 527.971 420.132C525.546 420.302 523.113 419.986 520.812 419.202C518.511 418.418 516.391 417.183 514.574 415.569Z" fill="white"/>
<path d="M643.956 419.156H636.993V376.952H653.687C657.708 376.692 661.687 377.891 664.895 380.328C666.248 381.595 667.303 383.147 667.982 384.871C668.662 386.595 668.95 388.449 668.825 390.299C668.943 392.177 668.65 394.059 667.967 395.813C667.284 397.567 666.226 399.151 664.869 400.454C661.73 403.024 657.734 404.306 653.687 404.041H643.956V419.156ZM652.817 398.054C654.039 398.194 655.278 398.084 656.457 397.73C657.635 397.376 658.73 396.787 659.673 395.996C660.963 394.477 661.631 392.527 661.546 390.536C661.652 388.486 660.984 386.471 659.673 384.891C658.736 384.09 657.643 383.491 656.463 383.132C655.283 382.774 654.042 382.663 652.817 382.808H643.956V398.054H652.817Z" fill="white"/>
</g>
<defs>
<clipPath id="clip0_1325_535">
<rect width="800" height="163.25" fill="white" transform="translate(0 256.75)"/>
</clipPath>
</defs>
</svg>
