<svg width="72" height="30" viewBox="0 0 72 30" fill="none" xmlns="http://www.w3.org/2000/svg">
<path d="M13.8518 29.5C17.5103 29.5 20.9438 28.4401 24.2354 26.7381V15L21.1203 10.8571H15.9285L19.7358 16.0357V24.3214C17.9633 24.9817 16.0898 25.3321 14.1979 25.3571C11.159 25.3571 8.83648 24.6321 7.33085 22.9577C5.82522 21.2833 4.5065 18.6837 4.5065 15C4.5065 11.3163 5.82522 8.55785 7.33085 6.88345C8.83648 5.20904 11.1382 4.37356 14.274 4.37356C15.2466 4.37356 17.6591 4.64286 17.6591 4.64286L14.544 0.5C14.544 0.5 13.9348 0.524159 13.6856 0.524159C9.37989 0.524159 6.08712 1.71639 3.80734 4.10083C1.52986 6.48643 0 10.1736 0 15C0 19.8264 1.52293 23.4031 3.80734 25.8025C6.09174 28.2019 9.51834 29.5 13.8518 29.5Z" fill="#1B1B1B"/>
<path d="M40.1571 0.5H46.3873L36.3497 15H29.7734L40.1571 0.5Z" fill="#085879"/>
<path d="M19.7361 0.5H25.9663L36.3499 15H29.7736L19.7361 0.5Z" fill="#09CE90"/>
<path d="M50.5408 0.5V7.75L56.4248 16.0357V29.5H60.9244V16.0357L72.0003 0.5H66.8085L58.6746 11.8583L50.5408 0.5Z" fill="#1B1B1B"/>
<path d="M46.3872 0.5L41.4757 7.58429L41.5415 29.5H46.3872V0.5Z" fill="#1B1B1B"/>
</svg>
