<svg width="124" height="50" viewBox="0 0 124 50" fill="none" xmlns="http://www.w3.org/2000/svg">
<path d="M23.8557 50C30.1565 50 36.0697 48.1726 41.7386 45.2381V25L36.3737 17.8571H27.4323L33.9893 26.7857V41.0714C30.9366 42.2098 27.7102 42.8139 24.4518 42.8571C19.2181 42.8571 15.2183 41.6071 12.6253 38.7202C10.0323 35.8333 7.76116 31.3512 7.76116 25C7.76116 18.6488 10.0323 13.8929 12.6253 11.0059C15.2183 8.11904 19.1823 6.67855 24.583 6.67855C26.258 6.67855 30.4128 7.14286 30.4128 7.14286L25.0479 0C25.0479 0 23.9988 0.0416529 23.5696 0.0416529C16.1542 0.0416529 10.4833 2.09722 6.55705 6.20833C2.63474 10.3214 0 16.6786 0 25C0 33.3214 2.62282 39.4881 6.55705 43.625C10.4913 47.7619 16.3926 50 23.8557 50Z" fill="white"/>
<path d="M69.1591 0H79.8888L62.6021 25H51.2762L69.1591 0Z" fill="#085879"/>
<path d="M33.9899 0H44.7196L62.6024 25H51.2766L33.9899 0Z" fill="#09CE90"/>
<path d="M87.0421 0V12.5L97.1757 26.7857V50H104.925V26.7857L124 0H115.059L101.05 19.5833L87.0421 0Z" fill="white"/>
<path d="M79.8886 0L71.4301 12.2143L71.5433 50H79.8886V0Z" fill="white"/>
</svg>
